<svg fill="none" height="61" viewBox="0 0 54 61" width="54" xmlns="http://www.w3.org/2000/svg" xmlns:xlink="http://www.w3.org/1999/xlink"><linearGradient id="a" gradientUnits="userSpaceOnUse" x1="21.3963" x2="56.7235" y1="2.6662" y2="55.3237"><stop offset="0" stop-color="#74b9df"/><stop offset=".461215" stop-color="#eb8052" stop-opacity=".65"/><stop offset="1" stop-color="#cc6c6c"/></linearGradient><g fill="url(#a)"><path d="m6.19893 60.3229c-1.82191 0-3.31054-.6221-4.4659-1.8664-1.155352-1.2442-1.73303-2.644-1.73303-4.1992 0-1.5109.466586-2.7551 1.39976-3.7327.97761-.9776 2.06631-1.4664 3.2661-1.4664 1.24423 0 2.31071.3999 3.19944 1.1997.88874.7999 1.3331 1.822 1.3331 3.0662s-.33327 2.1996-.99982 2.8662c-.66655.6665-1.48863.9998-2.46624.9998-1.55529 0-2.59955-.6888-3.13279-2.0663-.17775-.4-.39993-.5999-.66655-.5999-.44437 0-.62212.2444-.53324.7332.17774 1.1109.7332 2.0218 1.66637 2.7328.93318.7555 2.13297 1.1332 3.59938 1.1332s2.62177-.5999 3.46609-1.7997c.8887-1.1554 1.3331-2.5773 1.3331-4.2659s-.6888-3.7327-2.06633-6.1323c-1.3331-2.3552-1.99965-4.4437-1.99965-6.2656v-38.26001h-5.53238v-1.06649h17.33036v1.06649h-4.8659v44.45891c0 4.3993-.7109 7.732-2.1329 9.9983-1.422 2.3107-3.42164 3.4661-5.99897 3.4661z"/><path d="m40.0024 44.7256c2.7551 0 4.9325-.8221 6.5322-2.4663 1.5998-1.6441 2.3996-3.7104 2.3996-6.1989 0-2.5329-.7998-4.5548-2.3996-6.0656-1.5997-1.5109-3.5327-2.7106-5.799-3.5994-2.2662-.9332-4.5325-1.9108-6.7988-2.9328-2.2663-1.0221-4.1993-2.4885-5.799-4.3992-1.5997-1.9108-2.3996-4.266-2.3996-7.0655 0-3.7771 1.111-6.70993 3.3328-8.79846 2.2218-2.13296 5.2435-3.19944 9.0651-3.19944 1.9996 0 4.2437.377712 6.7322 1.13313 2.4884.75543 3.9326 1.13314 4.3325 1.13314 1.2887 0 2.0441-.75542 2.2663-2.26627h.7999v14.5975h-1.0665c-.6666-4.0438-2.0219-7.26544-4.066-9.66502-2.0441-2.44402-4.8436-3.66603-8.3985-3.66603-2.3996 0-4.3326.71098-5.799 2.13296-1.422 1.37754-2.133 3.24388-2.133 5.59903 0 2.31066.7999 4.22146 2.3996 5.73236 1.5997 1.5108 3.5327 2.7328 5.799 3.666 2.2663.8887 4.5326 1.8441 6.7988 2.8662 2.2663 1.022 4.1993 2.4884 5.799 4.3992s2.3996 4.2659 2.3996 7.0655c0 3.9548-1.3998 7.1543-4.1993 9.5983s-6.2878 3.666-10.4648 3.666c-2.0441 0-4.2215-.3777-6.5322-1.1331-2.2663-.7554-3.5994-1.1332-3.9993-1.1332-1.2887 0-2.0441.7555-2.2663 2.2663h-.7999l-.6665-16.3305h1.0665c1.3331 10.0427 5.9545 15.0641 13.8642 15.0641z"/></g></svg>