<svg width="34" height="34" viewBox="0 0 34 34" fill="none" xmlns="http://www.w3.org/2000/svg">
<path d="M28.9694 28.9698H23.9316V21.0804C23.9316 19.1991 23.898 16.7772 21.3115 16.7772C18.6877 16.7772 18.2862 18.8271 18.2862 20.9434V28.9693H13.2486V12.7455H18.0847V14.9626H18.1524C18.6364 14.1351 19.3358 13.4543 20.1761 12.9928C21.0164 12.5313 21.9661 12.3063 22.9241 12.3418C28.0301 12.3418 28.9715 15.7004 28.9715 20.0697L28.9694 28.9698ZM7.56423 10.5279C5.94963 10.5282 4.6405 9.21942 4.64023 7.60482C4.63997 5.99022 5.94857 4.68108 7.56317 4.68082C9.17777 4.68042 10.4869 5.98915 10.4872 7.60375C10.4873 8.37912 10.1794 9.12278 9.63129 9.67116C9.08314 10.2195 8.3396 10.5277 7.56423 10.5279ZM10.0832 28.97H5.04013V12.7455H10.083V28.9698L10.0832 28.97ZM31.4808 0.00223041H2.50872C1.13943 -0.0131758 0.0164979 1.08372 -0.000236511 2.45302V31.546C0.0159666 32.916 1.13876 34.0139 2.50859 33.9996H31.4808C32.8536 34.0166 33.9808 32.9186 33.9998 31.546V2.45076C33.9802 1.07881 32.8529 -0.0179571 31.4808 -2.74049e-05" fill="#454141"/>
</svg>
