<svg width="40" height="40" viewBox="0 0 40 40" fill="none" xmlns="http://www.w3.org/2000/svg">
<path d="M37.3333 20.3333C37.3362 22.5724 36.8953 24.7899 36.0361 26.8577C35.1769 28.9255 33.9165 30.8025 32.3277 32.3803C30.7518 33.9534 28.8814 35.2005 26.8234 36.0503C24.7653 36.9002 22.5599 37.3361 20.3333 37.3332C10.9442 37.3332 3.33334 29.7223 3.33334 20.3333C3.32739 15.9743 5.00177 11.7807 8.00833 8.62451C9.59472 6.95052 11.506 5.61785 13.6252 4.70804C15.7445 3.79823 18.0271 3.33043 20.3333 3.33327C22.5599 3.33038 24.7653 3.76633 26.8234 4.61618C28.8814 5.46603 30.7518 6.71314 32.3277 8.28621C33.9165 9.864 35.1769 11.741 36.0361 13.8088C36.8953 15.8766 37.3362 18.0941 37.3333 20.3333Z" stroke="#454141" stroke-width="3.33333" stroke-linecap="round" stroke-linejoin="round"/>
<path d="M37.3333 20.3334C34.853 20.3334 28.0105 19.3984 21.8863 22.0869C15.2333 25.0084 10.4164 29.5397 8.31688 32.3583" stroke="#454141" stroke-width="3.33333" stroke-linecap="round" stroke-linejoin="round"/>
<path d="M13.9583 4.56934C16.6188 7.02498 22.4243 13.2767 24.5833 19.4834C26.7423 25.6901 27.5413 33.3214 28.0343 35.4932" stroke="#454141" stroke-width="3.33333" stroke-linecap="round" stroke-linejoin="round"/>
<path d="M3.46423 18.2083C6.67553 18.4021 15.1764 18.5763 20.6164 16.2533C26.0564 13.9302 30.7373 9.65726 32.343 8.30151M4.60833 26.8043C6.1063 30.4303 8.80793 33.4294 12.2583 35.2966" stroke="#454141" stroke-width="3.33333" stroke-linecap="round" stroke-linejoin="round"/>
<path d="M3.33334 20.3332C3.32739 15.9743 5.00177 11.7807 8.00833 8.62451C9.59472 6.95052 11.506 5.61784 13.6252 4.70804C15.7445 3.79823 18.0271 3.33043 20.3333 3.33326M27.1333 4.74766C29.0693 5.59472 30.8307 6.79466 32.3277 8.28621C33.9165 9.864 35.1769 11.741 36.0361 13.8088C36.8953 15.8766 37.3362 18.0941 37.3333 20.3332C37.3333 22.4259 36.9551 24.4311 36.2623 26.2832M20.3333 37.3332C22.5599 37.3361 24.7653 36.9002 26.8234 36.0503C28.8814 35.2005 30.7518 33.9534 32.3277 32.3803" stroke="#454141" stroke-width="3.33333" stroke-linecap="round" stroke-linejoin="round"/>
</svg>
