<svg fill="none" height="44" viewBox="0 0 44 44" width="44" xmlns="http://www.w3.org/2000/svg"><path d="m37.64 5h-31.28c-.75225 0-1.36.60775-1.36 1.36v31.28c0 .7523.60775 1.36 1.36 1.36h31.28c.7523 0 1.36-.6077 1.36-1.36v-31.28c0-.75225-.6077-1.36-1.36-1.36zm-11.9637 10.1532h5.882v1.4323h-5.882zm-3.6763 11.8108c-.2751.5222-.668.9733-1.1475 1.3175-.5015.3485-1.0582.6035-1.649.7523-.6181.1656-1.2556.2471-1.8955.2422h-7.038v-14.4967h6.8425c.6928 0 1.3218.0637 1.8955.1827.5695.119 1.054.323 1.462.5992.4037.2763.7225.646.9477 1.1051.2211.4547.3358 1.0242.3358 1.7 0 .7309-.1658 1.3345-.4972 1.8232-.3358.4888-.8203.884-1.479 1.1943.8967.255 1.5555.7097 1.989 1.3472.442.646.6587 1.4195.6587 2.329 0 .7395-.1403 1.3727-.425 1.904zm11.849-2.244h-7.582c0 .8245.2848 1.615.714 2.04.4335.4207 1.054.6333 1.8657.6333.5865 0 1.0838-.1488 1.5088-.442.4207-.2933.6757-.6035.7693-.9265h2.5415c-.408 1.2622-1.0285 2.1632-1.8701 2.7072-.8329.544-1.8529.816-3.0387.816-.8287 0-1.5725-.136-2.2398-.3952-.6417-.2508-1.2197-.6333-1.6957-1.1263-.4693-.5063-.8321-1.1017-1.0668-1.751-.2592-.7183-.3867-1.4747-.3782-2.2355 0-.7863.1318-1.5173.3868-2.1972.4887-1.3218 1.5045-2.3801 2.8007-2.9283.6928-.289 1.4365-.4335 2.1888-.425.8925 0 1.666.17 2.3375.5185.6464.3328 1.2077.8097 1.6405 1.394.4292.5823.731 1.2452.9222 1.9933.1828.7352.2465 1.5087.1955 2.3247zm-5.185-4.063c-.459 0-.8457.0808-1.1432.238s-.544.3528-.731.578c-.1781.2175-.3098.4692-.3868.7395-.068.2252-.1148.4548-.1318.6885h4.6963c-.068-.7352-.323-1.2793-.663-1.6617-.357-.3783-.9307-.5823-1.6405-.5823zm-10.5613-.4293c.3698-.2677.5483-.7097.5483-1.3175.0128-.289-.0468-.5737-.1742-.8329-.1148-.2083-.2848-.3826-.493-.5058-.216-.1309-.4558-.2176-.7056-.255-.272-.051-.5482-.0765-.8202-.0722h-2.9878v3.3872h3.2343c.5567.0042 1.0285-.1318 1.3982-.4038zm.5015 3.0601c-.4164-.3188-.9732-.4761-1.666-.4761h-3.4764v3.995h3.4084c.3188 0 .6121-.0297.8968-.0892.2848-.0595.5398-.1615.7565-.306.2168-.1403.391-.3315.5228-.578.1274-.2465.1912-.561.1912-.9393 0-.7522-.2125-1.2834-.6333-1.6064z" fill="#454141"/></svg>