<svg fill="none" height="372" viewBox="0 0 1376 372" width="1376" xmlns="http://www.w3.org/2000/svg">
<ellipse class="sun" cx="490.5" cy="99" fill="#eea589" rx="96.5" ry="99"/><g clip-rule="evenodd" fill-rule="evenodd">
<path class="cloud" d="m1031.44 112.843c-.04-.974-.13-1.956-.29-2.943-2.06-13.0638-14.06-22.0249-26.79-20.0156-10.192 1.6086-17.77 9.7601-19.33 19.6496-4.461-2.627-9.782-3.78-15.238-2.919-12.733 2.009-21.385 14.228-19.323 27.292 1.24 7.862 6.078 14.238 12.51 17.631 3.019 11.18 13.516 18.69 24.871 17.584 5.131 5.991 13.04 9.26 21.25 7.964 5.82-.918 10.78-3.967 14.26-8.254 5.1 6.488 13.33 10.101 21.9 8.749 8.13-1.283 14.6-6.731 17.68-13.904 2.15.291 4.37.277 6.61-.077 12.74-2.009 21.39-14.228 19.33-27.292-1.16-7.314-5.43-13.342-11.19-16.878.12-1.817.05-3.68-.25-5.56-2.06-13.063-14.05-22.0243-26.79-20.015-9.96 1.5726-17.43 9.398-19.21 18.988z" fill="#eec689"/><path d="m530.721 341.466c-18.485-35.928-39.99-77.723-50.904-56.909-9.26 17.66-19.677 34.576-31.327 53.496-6.312 10.251-12.986 21.091-20.035 32.955h118.1 43.944c-3.022-5.087-6.482-11.812-10.126-18.893-11.822-22.978-25.575-49.707-32.555-36.395-4.85 9.248-10.195 18.178-16.064 27.753-.343-.667-.687-1.336-1.033-2.007z" fill="#347194"/><path d="m246.458 341.466c-18.486-35.928-39.99-77.723-50.904-56.909-9.261 17.66-19.677 34.576-31.327 53.496-6.312 10.251-12.987 21.091-20.035 32.955h118.099 43.944c-3.022-5.087-6.482-11.812-10.126-18.893-11.822-22.978-25.575-49.707-32.555-36.395-4.849 9.248-10.195 18.178-16.063 27.753-.343-.667-.688-1.336-1.033-2.007z" fill="#347194"/><path d="m386.53 341.466c-18.486-35.928-39.991-77.723-50.905-56.909-9.26 17.66-19.676 34.576-31.326 53.496-6.312 10.251-12.987 21.091-20.036 32.955h118.1 43.944c-3.022-5.087-6.482-11.812-10.125-18.893-11.823-22.978-25.576-49.707-32.556-36.395-4.849 9.248-10.195 18.178-16.063 27.753-.343-.667-.688-1.336-1.033-2.007z" fill="#347194"/><path d="m102.266 341.466c-18.4855-35.928-39.9901-77.723-50.9041-56.909-9.2603 17.66-19.6767 34.576-31.3266 53.496-6.3122 10.251-12.98652 21.091-20.0353 32.955h118.1 43.944c-3.022-5.087-6.482-11.812-10.126-18.893-11.823-22.978-25.575-49.707-32.555-36.395-4.85 9.248-10.195 18.178-16.064 27.753-.343-.667-.687-1.336-1.033-2.007z" fill="#347194"/><path d="m842.532 341.466c18.486-35.928 39.99-77.723 50.904-56.909 9.261 17.66 19.677 34.576 31.327 53.496 6.312 10.251 12.987 21.091 20.035 32.955h-118.099-43.945c3.023-5.087 6.483-11.812 10.126-18.893 11.823-22.978 25.576-49.707 32.556-36.395 4.849 9.248 10.195 18.178 16.063 27.753.343-.667.688-1.336 1.033-2.007z" fill="#347194"/><path d="m1126.8 341.466c18.48-35.928 39.99-77.723 50.9-56.909 9.26 17.66 19.68 34.576 31.33 53.496 6.31 10.251 12.98 21.091 20.03 32.955h-118.1-43.94c3.02-5.087 6.48-11.812 10.12-18.893 11.83-22.978 25.58-49.707 32.56-36.395 4.85 9.248 10.19 18.178 16.06 27.753.35-.667.69-1.336 1.04-2.007z" fill="#347194"/><path d="m989.47 341.466c18.49-35.928 39.99-77.723 50.9-56.909 9.26 17.66 19.68 34.576 31.33 53.496 6.31 10.251 12.99 21.091 20.04 32.955h-118.103-43.944c3.022-5.087 6.482-11.812 10.126-18.893 11.822-22.978 25.575-49.707 32.555-36.395 4.849 9.248 10.195 18.178 16.063 27.753.343-.667.688-1.336 1.033-2.007z" fill="#347194"/><path d="m1273.73 341.466c18.49-35.928 39.99-77.723 50.91-56.909 9.26 17.66 19.67 34.576 31.32 53.496 6.32 10.251 12.99 21.091 20.04 32.955h-118.1-43.94c3.02-5.087 6.48-11.812 10.12-18.893 11.82-22.978 25.58-49.707 32.56-36.395 4.85 9.248 10.19 18.178 16.06 27.753.34-.667.69-1.336 1.03-2.007z" fill="#347194"/></g></svg>