<svg width="1405" height="472" viewBox="0 0 1405 472" fill="none" xmlns="http://www.w3.org/2000/svg">
<ellipse cx="470.75" cy="134.5" rx="130.275" ry="133.65" fill="#EEA589"/>
<path fill-rule="evenodd" clip-rule="evenodd" d="M1046.44 137.843C1046.4 136.869 1046.31 135.887 1046.15 134.9C1044.09 121.836 1032.09 112.875 1019.36 114.884C1009.17 116.493 1001.59 124.645 1000.03 134.534C995.569 131.907 990.248 130.754 984.792 131.615C972.058 133.624 963.407 145.843 965.468 158.907C966.709 166.769 971.547 173.145 977.979 176.538C980.998 187.718 991.495 195.228 1002.85 194.122C1007.98 200.113 1015.89 203.382 1024.1 202.086C1029.92 201.168 1034.88 198.119 1038.36 193.832C1043.46 200.32 1051.69 203.933 1060.26 202.581C1068.39 201.298 1074.86 195.85 1077.94 188.677C1080.08 188.968 1082.31 188.954 1084.55 188.6C1097.29 186.591 1105.94 174.372 1103.88 161.308C1102.72 153.994 1098.45 147.966 1092.69 144.43C1092.81 142.613 1092.74 140.75 1092.44 138.87C1090.38 125.807 1078.39 116.846 1065.65 118.855C1055.69 120.428 1048.22 128.253 1046.44 137.843Z" fill="#EEC689"/>
<path fill-rule="evenodd" clip-rule="evenodd" d="M537.721 446.661C519.236 415.831 497.731 379.968 486.817 397.828C477.557 412.982 467.14 427.498 455.49 443.732C449.178 452.529 442.504 461.83 435.455 472.01H553.555L597.499 472.01C594.477 467.646 591.017 461.875 587.373 455.798C575.55 436.082 561.798 413.146 554.818 424.568C549.968 432.504 544.623 440.167 538.754 448.383C538.411 447.811 538.067 447.237 537.721 446.661Z" fill="#347194"/>
<path fill-rule="evenodd" clip-rule="evenodd" d="M263.713 434.297C236.469 388.863 204.778 336.01 188.693 362.331C175.046 384.663 159.695 406.056 142.527 429.981C133.224 442.945 123.388 456.652 113 471.656H287.047L351.808 471.656C347.355 465.223 342.255 456.719 336.885 447.763C319.462 418.707 299.194 384.905 288.908 401.739C281.761 413.434 273.883 424.726 265.235 436.835C264.729 435.992 264.222 435.146 263.713 434.297Z" fill="#347194"/>
<path fill-rule="evenodd" clip-rule="evenodd" d="M393.53 446.661C375.044 415.831 353.539 379.968 342.625 397.828C333.365 412.982 322.949 427.498 311.299 443.732C304.987 452.529 298.312 461.83 291.263 472.01H409.363L453.308 472.01C450.285 467.646 446.825 461.875 443.181 455.798C431.359 436.082 417.606 413.146 410.626 424.568C405.777 432.504 400.431 440.167 394.563 448.383C394.22 447.811 393.875 447.237 393.53 446.661Z" fill="#347194"/>
<path fill-rule="evenodd" clip-rule="evenodd" d="M74.2906 429.303C43.1469 377.364 6.91767 316.944 -11.4695 347.033C-27.0705 372.563 -44.6192 397.018 -64.246 424.37C-74.8803 439.189 -86.1248 454.859 -98 472.01L47.7537 472.01L100.965 472.01L174.999 472.01C169.908 464.657 164.078 454.935 157.94 444.697C138.022 411.481 114.852 372.84 103.093 392.083C94.9228 405.453 85.9173 418.362 76.0309 432.205C75.4526 431.241 74.8725 430.273 74.2906 429.303Z" fill="#347194"/>
<path fill-rule="evenodd" clip-rule="evenodd" d="M849.532 446.661C868.018 415.831 889.522 379.968 900.436 397.828C909.697 412.982 920.113 427.498 931.763 443.732C938.075 452.529 944.749 461.83 951.798 472.01H833.698L789.754 472.01C792.776 467.646 796.237 461.875 799.88 455.798C811.703 436.082 825.456 413.146 832.436 424.568C837.285 432.504 842.63 440.167 848.499 448.383C848.842 447.811 849.186 447.237 849.532 446.661Z" fill="#347194"/>
<path fill-rule="evenodd" clip-rule="evenodd" d="M1149.22 437.568C1174.33 395.682 1203.55 346.955 1218.38 371.221C1230.96 391.81 1245.11 411.532 1260.94 433.59C1269.52 445.541 1278.59 458.178 1288.16 472.01H1127.71L1068 472.01C1072.11 466.08 1076.81 458.24 1081.76 449.984C1097.82 423.196 1116.51 392.033 1125.99 407.552C1132.58 418.335 1139.84 428.745 1147.81 439.909C1148.28 439.131 1148.75 438.351 1149.22 437.568Z" fill="#347194"/>
<path fill-rule="evenodd" clip-rule="evenodd" d="M996.47 446.661C1014.96 415.831 1036.46 379.968 1047.37 397.828C1056.63 412.982 1067.05 427.498 1078.7 443.732C1085.01 452.529 1091.69 461.83 1098.74 472.01H980.637L936.692 472.01C939.715 467.646 943.175 461.875 946.819 455.798C958.641 436.082 972.394 413.146 979.374 424.568C984.223 432.504 989.569 440.167 995.437 448.383C995.78 447.811 996.125 447.237 996.47 446.661Z" fill="#347194"/>
<path fill-rule="evenodd" clip-rule="evenodd" d="M1331.72 429.313C1362.87 377.368 1399.1 316.941 1417.49 347.034C1433.09 372.567 1450.64 397.025 1470.27 424.379C1480.91 439.201 1492.15 454.872 1504.03 472.026L1358.26 472.026L1305.04 472.026L1231 472.026C1236.09 464.671 1241.92 454.948 1248.06 444.709C1267.98 411.489 1291.15 372.844 1302.91 392.089C1311.09 405.461 1320.09 418.371 1329.98 432.215C1330.56 431.251 1331.14 430.284 1331.72 429.313Z" fill="#347194"/>
</svg>
