<svg fill="none" height="359" viewBox="0 0 360 359" width="360" xmlns="http://www.w3.org/2000/svg"><ellipse cx="-24.5" cy="99" fill="#eea589" rx="96.5" ry="99"/><g clip-rule="evenodd" fill="#347194" fill-rule="evenodd"><path d="m58.4702 337.487c-13.4615-26.162-29.121-56.597-37.0686-41.44-6.7433 12.86-14.32852 25.178-22.81193 38.955-4.59654 7.465-9.45677 15.358-14.58967 23.998h63 23 32c-2.2007-3.704-4.7205-8.601-7.3737-13.758-8.6091-16.732-18.6239-36.196-23.7067-26.503-3.5314 6.735-7.4239 13.237-11.6972 20.21-.2499-.485-.5007-.973-.7522-1.462z"/><path d="m285.53 337.487c13.461-26.162 29.121-56.597 37.068-41.44 6.744 12.86 14.329 25.178 22.812 38.955 4.597 7.465 9.457 15.358 14.59 23.998h-63-23-32c2.201-3.704 4.72-8.601 7.374-13.758 8.609-16.732 18.624-36.196 23.706-26.503 3.532 6.735 7.424 13.237 11.698 20.21.25-.485.5-.973.752-1.462z"/></g></svg>