<svg width="1376" height="350" viewBox="0 0 1376 350" fill="none" xmlns="http://www.w3.org/2000/svg">
<ellipse cx="667.5" cy="175" rx="96.5" ry="99" fill="#EEA589"/>
<path fill-rule="evenodd" clip-rule="evenodd" d="M1031.44 90.8426C1031.4 89.8691 1031.31 88.8868 1031.15 87.8996C1029.09 74.8362 1017.09 65.8751 1004.36 67.8844C994.168 69.493 986.59 77.6445 985.03 87.5344C980.569 84.9072 975.248 83.7539 969.792 84.6149C957.059 86.6243 948.407 98.8432 950.469 111.907C951.709 119.769 956.547 126.145 962.979 129.538C965.998 140.718 976.495 148.228 987.85 147.122C992.981 153.113 1000.89 156.382 1009.1 155.086C1014.92 154.168 1019.88 151.119 1023.36 146.832C1028.46 153.32 1036.69 156.933 1045.26 155.581C1053.39 154.298 1059.86 148.85 1062.94 141.677C1065.09 141.968 1067.31 141.954 1069.55 141.6C1082.29 139.591 1090.94 127.372 1088.88 114.308C1087.72 106.994 1083.45 100.966 1077.69 97.4297C1077.81 95.6127 1077.74 93.7502 1077.44 91.8702C1075.38 78.8068 1063.39 69.8457 1050.65 71.855C1040.69 73.4275 1033.22 81.253 1031.44 90.8426Z" fill="#EEC689"/>
<path fill-rule="evenodd" clip-rule="evenodd" d="M295.437 34.8426C295.4 33.8691 295.306 32.8868 295.15 31.8996C293.089 18.8362 281.095 9.87506 268.361 11.8844C258.168 13.493 250.59 21.6445 249.03 31.5344C244.569 28.9072 239.248 27.7539 233.792 28.6149C221.059 30.6243 212.407 42.8432 214.469 55.9066C215.709 63.7685 220.547 70.1447 226.979 73.5378C229.998 84.7181 240.495 92.2279 251.85 91.1223C256.981 97.1128 264.887 100.382 273.101 99.0857C278.919 98.1677 283.884 95.1189 287.365 90.8322C292.463 97.3196 300.695 100.933 309.261 99.5812C317.394 98.2979 323.861 92.85 326.936 85.6774C329.085 85.9676 331.307 85.9544 333.552 85.6001C346.286 83.5908 354.937 71.3719 352.876 58.3084C351.722 50.9944 347.454 44.9664 341.687 41.4297C341.814 39.6127 341.739 37.7502 341.442 35.8702C339.381 22.8068 327.387 13.8457 314.654 15.855C304.689 17.4275 297.223 25.253 295.437 34.8426Z" fill="#EEC689"/>
<path fill-rule="evenodd" clip-rule="evenodd" d="M530.721 319.466C512.236 283.538 490.731 241.743 479.817 262.557C470.557 280.217 460.14 297.133 448.49 316.053C442.178 326.304 435.504 337.144 428.455 349.008H546.555L590.499 349.008C587.477 343.921 584.017 337.196 580.373 330.115C568.551 307.137 554.798 280.408 547.818 293.719C542.968 302.968 537.623 311.898 531.754 321.473C531.411 320.806 531.067 320.137 530.721 319.466Z" fill="#347194"/>
<path fill-rule="evenodd" clip-rule="evenodd" d="M246.458 319.466C227.972 283.538 206.468 241.743 195.554 262.557C186.293 280.217 175.877 297.133 164.227 316.053C157.915 326.304 151.24 337.144 144.192 349.008H262.291L306.235 349.008C303.213 343.921 299.753 337.196 296.109 330.115C284.287 307.137 270.534 280.408 263.554 293.719C258.705 302.968 253.359 311.898 247.491 321.473C247.148 320.806 246.803 320.137 246.458 319.466Z" fill="#347194"/>
<path fill-rule="evenodd" clip-rule="evenodd" d="M386.53 319.466C368.044 283.538 346.539 241.743 335.625 262.557C326.365 280.217 315.949 297.133 304.299 316.053C297.987 326.304 291.312 337.144 284.263 349.008H402.363L446.307 349.008C443.285 343.921 439.825 337.196 436.182 330.115C424.359 307.137 410.606 280.408 403.626 293.719C398.777 302.968 393.431 311.898 387.563 321.473C387.22 320.806 386.875 320.137 386.53 319.466Z" fill="#347194"/>
<path fill-rule="evenodd" clip-rule="evenodd" d="M102.266 319.466C83.7805 283.538 62.2759 241.743 51.3619 262.557C42.1016 280.217 31.6852 297.133 20.0353 316.053C13.7231 326.304 7.04878 337.144 0 349.008H118.1L162.044 349.008C159.022 343.921 155.562 337.196 151.918 330.115C140.095 307.137 126.343 280.408 119.363 293.719C114.513 302.968 109.168 311.898 103.299 321.473C102.956 320.806 102.612 320.137 102.266 319.466Z" fill="#347194"/>
<path fill-rule="evenodd" clip-rule="evenodd" d="M842.532 319.466C861.018 283.538 882.522 241.743 893.436 262.557C902.697 280.217 913.113 297.133 924.763 316.053C931.075 326.304 937.75 337.144 944.798 349.008H826.699L782.754 349.008C785.777 343.921 789.237 337.196 792.88 330.115C804.703 307.137 818.456 280.408 825.436 293.719C830.285 302.968 835.631 311.898 841.499 321.473C841.842 320.806 842.187 320.137 842.532 319.466Z" fill="#347194"/>
<path fill-rule="evenodd" clip-rule="evenodd" d="M1126.8 319.466C1145.28 283.538 1166.79 241.743 1177.7 262.557C1186.96 280.217 1197.38 297.133 1209.03 316.053C1215.34 326.304 1222.01 337.144 1229.06 349.008H1110.96L1067.02 349.008C1070.04 343.921 1073.5 337.196 1077.14 330.115C1088.97 307.137 1102.72 280.408 1109.7 293.719C1114.55 302.968 1119.89 311.898 1125.76 321.473C1126.11 320.806 1126.45 320.137 1126.8 319.466Z" fill="#347194"/>
<path fill-rule="evenodd" clip-rule="evenodd" d="M989.47 319.466C1007.96 283.538 1029.46 241.743 1040.37 262.557C1049.63 280.217 1060.05 297.133 1071.7 316.053C1078.01 326.304 1084.69 337.144 1091.74 349.008H973.637L929.692 349.008C932.715 343.921 936.175 337.196 939.819 330.115C951.641 307.137 965.394 280.408 972.374 293.719C977.223 302.968 982.569 311.898 988.437 321.473C988.78 320.806 989.125 320.137 989.47 319.466Z" fill="#347194"/>
<path fill-rule="evenodd" clip-rule="evenodd" d="M1273.73 319.466C1292.22 283.538 1313.72 241.743 1324.64 262.557C1333.9 280.217 1344.31 297.133 1355.96 316.053C1362.28 326.304 1368.95 337.144 1376 349.008H1257.9L1213.96 349.008C1216.98 343.921 1220.44 337.196 1224.08 330.115C1235.9 307.137 1249.66 280.408 1256.64 293.719C1261.49 302.968 1266.83 311.898 1272.7 321.473C1273.04 320.806 1273.39 320.137 1273.73 319.466Z" fill="#347194"/>
</svg>
