<svg width="588" height="359" viewBox="0 0 588 359" fill="none" xmlns="http://www.w3.org/2000/svg">
<ellipse cx="96.5" cy="99" rx="96.5" ry="99" fill="#EEA589"/>
<path fill-rule="evenodd" clip-rule="evenodd" d="M179.47 337.487C166.009 311.325 150.349 280.89 142.402 296.047C135.658 308.907 128.073 321.225 119.59 335.002C114.993 342.467 110.133 350.36 105 359H168H191H223C220.799 355.296 218.28 350.399 215.626 345.242C207.017 328.51 197.002 309.046 191.92 318.739C188.388 325.474 184.496 331.976 180.222 338.949C179.972 338.464 179.722 337.976 179.47 337.487Z" fill="#347194"/>
<path fill-rule="evenodd" clip-rule="evenodd" d="M74.4702 337.487C61.0087 311.325 45.3492 280.89 37.4016 296.047C30.6583 308.907 23.0731 321.225 14.5897 335.002C9.99313 342.467 5.1329 350.36 0 359H63H86H118C115.799 355.296 113.28 350.399 110.626 345.242C102.017 328.51 92.0024 309.046 86.9196 318.739C83.3882 325.474 79.4957 331.976 75.2224 338.949C74.9725 338.464 74.7217 337.976 74.4702 337.487Z" fill="#347194"/>
<path fill-rule="evenodd" clip-rule="evenodd" d="M406.53 337.487C419.991 311.325 435.651 280.89 443.598 296.047C450.342 308.907 457.927 321.225 466.41 335.002C471.007 342.467 475.867 350.36 481 359H418H395H363C365.201 355.296 367.72 350.399 370.374 345.242C378.983 328.51 388.998 309.046 394.08 318.739C397.612 325.474 401.504 331.976 405.778 338.949C406.028 338.464 406.278 337.976 406.53 337.487Z" fill="#347194"/>
<path fill-rule="evenodd" clip-rule="evenodd" d="M513.53 337.487C526.991 311.325 542.651 280.89 550.598 296.047C557.342 308.907 564.927 321.225 573.41 335.002C578.007 342.467 582.867 350.36 588 359H525H502H470C472.201 355.296 474.72 350.399 477.374 345.242C485.983 328.51 495.998 309.046 501.08 318.739C504.612 325.474 508.504 331.976 512.778 338.949C513.028 338.464 513.278 337.976 513.53 337.487Z" fill="#347194"/>
</svg>
